 <svg class="d-block" width="30" height="30" viewBox="0 0 30 30" fill="none"
                                         xmlns="http://www.w3.org/2000/svg">
                                        <path fill-rule="evenodd" clip-rule="evenodd"
                                              d="M13.5117 30C12.6662 30 11.8716 29.6715 11.2743 29.0735L0.924916 18.7249C-0.308305 17.491 -0.308305 15.4844 0.924916 14.2506L12.0513 3.12477C14.8513 0.207491 21.6198 -2.12982 26.8744 3.12477C30.961 7.21141 30.961 13.861 26.8744 17.9478L15.7486 29.0736C15.1513 29.6715 14.3567 30 13.5117 30ZM12.9524 4.02572L1.82592 15.1515C1.0898 15.8883 1.0898 17.0873 1.82592 17.824L12.1752 28.1727C12.8895 28.8869 14.1326 28.8882 14.8476 28.1727L25.9734 17.0468C29.563 13.4567 29.5633 7.61562 25.9734 4.02578C23.4684 1.52071 17.5193 -0.541341 12.9524 4.02572ZM22.4827 4.4942C20.9639 4.4942 19.7325 5.72552 19.7325 7.24439C19.7325 8.76332 20.9639 9.99459 22.4827 9.99459C24.0016 9.99459 25.2329 8.76332 25.2329 7.24439C25.2329 5.72559 24.0016 4.4942 22.4827 4.4942ZM22.4827 8.72036C21.6676 8.72036 21.0068 8.05953 21.0068 7.24445C21.0068 6.42938 21.6676 5.76861 22.4827 5.76861C23.2978 5.76861 23.9586 6.42944 23.9586 7.24445C23.9586 8.05953 23.2978 8.72036 22.4827 8.72036ZM14.5002 14.8628V13.9699H11.2628V18.4598H14.5705V17.5732H12.2646V16.6417H14.2756V15.7874H12.2646V14.8628H14.5002ZM10.1579 13.9699H9.15561H9.15555V16.8601L6.95232 13.9699H6.01465V18.4598H7.01643V15.6462L9.15561 18.4598H10.1579V13.9699ZM16.8635 16.5521L17.6599 13.9699H18.7071L19.4973 16.5521L20.3902 13.9699H21.4759L19.9086 18.4598H19.1631L18.1806 15.3382L17.2044 18.4598H16.459L14.8916 13.9699H15.9774L16.8635 16.5521Z"
                                              fill="#2885ff"></path>
                                    </svg>