 <svg width="30" height="20" viewBox="0 0 30 20" fill="none"
                                         xmlns="http://www.w3.org/2000/svg">
                                        <path fill-rule="evenodd" clip-rule="evenodd"
                                              d="M14.9999 0C23.1556 0 29.5414 8.61032 29.8094 8.97694C30.0635 9.3244 30.0635 9.79649 29.8094 10.1442C29.5414 10.5105 23.1556 19.1209 14.9999 19.1209C6.84412 19.1209 0.458087 10.5106 0.190372 10.144C-0.0634572 9.79614 -0.0634572 9.3244 0.190372 8.97659C0.458087 8.61032 6.84412 0 14.9999 0ZM2.24883 9.55977C3.78909 11.428 8.99229 17.1429 14.9999 17.1429C21.0203 17.1429 26.2126 11.431 27.7509 9.56112C26.21 7.69186 21.0072 1.97801 14.9999 1.97801C8.9794 1.97801 3.7871 7.68987 2.24883 9.55977ZM9.06592 9.56048C9.06592 6.28848 11.728 3.62638 15 3.62638C18.272 3.62638 20.9341 6.28848 20.9341 9.56048C20.9341 12.8325 18.272 15.4946 15 15.4946C11.728 15.4946 9.06592 12.8325 9.06592 9.56048ZM11.044 9.56048C11.044 11.7419 12.8186 13.5165 15 13.5165C17.1815 13.5165 18.956 11.7419 18.956 9.56048C18.956 7.37909 17.1814 5.60445 15 5.60445C12.8186 5.60445 11.044 7.37909 11.044 9.56048Z"
                                              fill="#886bfe"></path>
                                    </svg>