<?xml version="1.0" encoding="utf-8"?>
<!-- Generator: Adobe Illustrator 21.0.0, SVG Export Plug-In . SVG Version: 6.00 Build 0)  -->
<svg version="1.1" id="Layer_1" xmlns="http://www.w3.org/2000/svg" xmlns:xlink="http://www.w3.org/1999/xlink" x="0px" y="0px"
	 viewBox="0 0 512 512" style="enable-background:new 0 0 512 512;" xml:space="preserve">
<style type="text/css">
	.st0{fill:#FDEEC2;}
	.st1{fill:#EAA60F;}
</style>
<circle class="st0" cx="256" cy="256" r="250"/>
<title>Call Enquiry</title>
<g>
	<path class="st1" d="M152.1,355.1c26.4,31.7,59.4,57.6,96.5,75.6c13.8,6.5,32.1,14.2,52,15.5c1.1,0.1,2.3,0.1,3.3,0.1
		c11.4,0,20.5-3.9,28.1-11.9c0.1-0.1,0.1-0.1,0.2-0.2c3.8-4.3,7.8-8.5,12.1-12.4l1.4-1.4c2.2-2.2,4.4-4.2,6.5-6.5
		c8.5-8.9,8.4-19-0.2-27.5l-35.4-35.4l0,0c-2.2-2.4-6.8-6.3-13.1-6.3c-4.7,0-9.3,2.2-13.4,6.3l-22,22c-0.9,0.9-2.9,2.9-6,2.9
		c-1.3,0-2.7-0.3-3.9-1l0,0c-0.2-0.1-0.3-0.2-0.6-0.3c-2-1.2-4.3-2.3-6.7-3.6c-2.6-1.2-5-2.6-7.4-4c-20.1-12.8-38.3-29.3-55.7-50.7
		c0-0.1-0.1-0.1-0.2-0.2c-9.4-12-15.5-21.9-19.8-32.2l-0.1-0.3c-1.1-3.4-1.1-6,2-9.1l0.1-0.1l0,0c5.5-4.9,10.4-9.9,16.2-15.8
		c1.2-1.2,2.6-2.4,3.7-3.7c0.6-0.7,1.2-1.2,1.8-1.9c8.9-8.9,8.9-18.6,0-27.4L174.2,208c-1-1-2-2.1-3-3.1c-1-1-2-2.1-3-3.1
		c-4.2-4.4-7.9-8.1-11.7-11.7l-0.1-0.1c-4-4-8.5-6.1-13.1-6.1s-9.2,2.1-13.4,6l-0.1,0.1L108,211.9c-6.1,5.9-9.8,13.9-10.4,22.4
		c-1,12.6,1.2,25.7,7.5,42.5C115,303.3,129.9,328.3,152.1,355.1z M297.6,358.4c1.2-1.2,3.6-3.2,5.9-3.2c2.3,0,4.4,2.1,5.3,3
		c0.1,0.1,0.1,0.1,0.2,0.2l35.5,35.5c4.4,4.4,4.5,7.8,0.2,12.4c-0.2,0.2-0.4,0.3-0.6,0.6c-0.2,0.2-0.4,0.4-0.6,0.6L296.3,360
		L297.6,358.4z M137.4,197.5c2.1-2,4.2-3.1,6-3.1c2.2,0,4.2,1.6,5.5,2.9l0.2,0.2l0.1,0.1c3.7,3.4,7.2,7,11.3,11.3c1,1,2,2.1,3.1,3.1
		c1,1,2,2,3,3.1c0,0,0,0,0.1,0.1l17.5,17.5c4.8,4.8,4.8,7.7,0,12.3c-0.6,0.6-1,1-1.6,1.6l-47.3-47.4L137.4,197.5z M108.2,235
		c0.4-6,3-11.5,7.3-15.8l12.4-12.4l47.4,47.4c-4.2,4.3-8.2,8.1-12.4,11.9l0,0c-0.3,0.2-0.6,0.4-0.8,0.8c-8,8.2-5.3,16.9-4.4,19.6
		c0,0,0,0,0,0.1l0.2,0.6c0,0.1,0.1,0.2,0.1,0.3c4.7,11.4,11.3,22.2,21.4,35.1c0.1,0.1,0.2,0.2,0.2,0.3
		c18.1,22.2,37.1,39.5,58.1,52.8c2.7,1.7,5.5,3.2,8.3,4.5c2.2,1.1,4.3,2.1,5.9,3.1c0.1,0.1,0.2,0.1,0.3,0.2h0.1
		c0.2,0.2,0.6,0.3,0.8,0.4c2.7,1.4,5.7,2.1,8.8,2.2c5,0,9.5-2,13.5-6l12.9-12.9l47.4,47.4c-4.1,3.9-8.1,8-11.9,12.3
		c-5.4,5.8-11.7,8.4-20.2,8.4c-0.9,0-1.8,0-2.7,0c-18.2-1.1-35.3-8.3-48-14.5c-35.8-17.4-67.5-42.2-93-72.8
		c-21.4-25.9-35.8-49.8-45.3-75.5C109.4,257.7,107.3,246.1,108.2,235z"/>
	<path class="st1" d="M248.5,264.9l-9.5,35.2c-0.8,2.9,0.9,5.8,3.8,6.5c1.6,0.4,3.2,0.1,4.4-0.8l37.5-26.3c7.2,1.4,14.6,2.2,22,2.2
		c59.6,0,108.1-48.5,108.1-108.1S366.2,65.6,306.6,65.6s-108.1,48.5-108.1,108.1C198.4,210.7,217.3,245.1,248.5,264.9L248.5,264.9z
		 M306.6,76.3c53.8,0.1,97.4,43.7,97.3,97.5c-0.1,53.8-43.7,97.4-97.5,97.3c-7.3,0-14.5-0.9-21.7-2.4c-1.4-0.3-3,0-4.2,0.8
		l-27.3,19.2l6.8-24.9c0.7-2.3-0.3-4.8-2.4-6c-46.4-27.2-62-86.9-34.8-133.4C240,94.6,272,76.3,306.6,76.3L306.6,76.3z"/>
	<g>
		<g id="Layer_8_76_">
			<path class="st1" d="M377.7,160.4l-23.6-38.9c-0.7-1.1-2-1.9-3.3-1.9h-86.9c-1.3,0-2.7,0.7-3.3,1.9l-23.6,38.9v0.1
				c-0.1,0.3-0.3,0.6-0.3,0.9v0.1c-0.1,0.3-0.1,0.6-0.1,0.9c0,0.1,0,0.1,0,0.1c0,0.1,0,0.1,0,0.2c0,0.3,0.1,0.7,0.2,0.9v0.1
				c0.1,0.3,0.3,0.7,0.6,0.9v0.1l67,82.9l0,0l0,0c0.2,0.2,0.4,0.4,0.7,0.6l0,0h0.1c0.3,0.2,0.7,0.4,1,0.6c0.3,0.1,0.6,0.1,0.9,0.1
				c0.1,0,0.2,0,0.3,0l0,0l0,0l0,0c0,0,0,0,0.1,0c0.3,0,0.7-0.1,1-0.1h0.1l0,0l0,0c0.1,0,0.2-0.1,0.2-0.1c0.1,0,0.2-0.1,0.3-0.1
				c0.1-0.1,0.2-0.1,0.3-0.2c0.1,0,0.1-0.1,0.2-0.1c0,0,0.1,0,0.1-0.1c0.2-0.1,0.3-0.3,0.4-0.4c0,0,0.1,0,0.1-0.1l0,0l67-82.9
				C378.4,163.6,378.5,161.8,377.7,160.4z M315.7,127.4l12.4,31.1h-41.6l12.4-31.1H315.7z M266.1,127.4h24.5l-12.4,31.1h-31
				L266.1,127.4z M248.5,166.3H278l19.4,60.5L248.5,166.3z M307.4,232.6l-21.2-66.4h42.5L307.4,232.6z M317.4,226.8l19.3-60.5h29.5
				L317.4,226.8z M336.6,158.5l-12.4-31.1h24.5l18.9,31.1H336.6z"/>
		</g>
	</g>
</g>
</svg>
