<?xml version="1.0" encoding="utf-8"?>
<!-- Generator: Adobe Illustrator 21.0.0, SVG Export Plug-In . SVG Version: 6.00 Build 0)  -->
<svg version="1.1" id="Layer_1" xmlns="http://www.w3.org/2000/svg" xmlns:xlink="http://www.w3.org/1999/xlink" x="0px" y="0px"
	 viewBox="0 0 512 512" style="enable-background:new 0 0 512 512;" xml:space="preserve">
<style type="text/css">
	.st0{fill:#CDF1CD;}
	.st1{fill:#3BC537;}
</style>
<circle class="st0" cx="256" cy="256" r="250"/>
<title>Call Enquiry</title>
<g>
	<g>
		<path class="st1" d="M371.6,141.8l-38.5-55.1c-1.1-1.5-2.7-2.4-4.5-2.4H207.3c-1.8,0-3.4,0.9-4.5,2.4l-38.5,55.1
			c-1.5,2.2-1.3,5.2,0.6,7.1l99.2,99.2c1.1,1.1,2.5,1.6,3.9,1.6s2.8-0.5,3.9-1.6l99.2-99.2C372.8,146.9,373.2,143.9,371.6,141.8z
			 M267.9,236.3l-92-92l34.3-49h115.5l34.2,49L267.9,236.3z"/>
	</g>
</g>
<g>
	<g>
		<rect x="168.7" y="139.4" class="st1" width="192.8" height="11"/>
	</g>
</g>
<g>
	<g>
		<path class="st1" d="M299,150.4l-31.1,79.9l-31.1-79.9l-9.5,3.7l35.8,92.2c0.8,2,2.7,3.3,4.8,3.3c2.1,0,4-1.3,4.8-3.3l35.8-92.2
			L299,150.4z"/>
	</g>
</g>
<g>
	<g>
		<path class="st1" d="M323.4,87.7l-18.3,45.6l-32.7-46.7c-2-2.9-7-2.9-9,0l-32.7,46.7l-18.3-45.6l-10.2,4.1l22.1,55.1
			c0.8,1.8,2.5,3.2,4.5,3.4c2,0.2,4-0.6,5.2-2.4l34-48.6l34,48.6c1.1,1.5,2.7,2.4,4.5,2.4c0.2,0,0.4,0,0.6,0c2-0.2,3.8-1.5,4.5-3.4
			l22.1-55.1L323.4,87.7z"/>
	</g>
</g>
<g>
	<g>
		<rect x="102.6" y="139.4" class="st1" width="38.5" height="11"/>
	</g>
</g>
<g>
	<g>
		
			<rect x="141.2" y="81" transform="matrix(0.5547 -0.8321 0.8321 0.5547 -18.6063 166.9459)" class="st1" width="11" height="39.7"/>
	</g>
</g>
<g>
	<g>
		
			<rect x="126.8" y="183.5" transform="matrix(0.8321 -0.5547 0.5547 0.8321 -80.2042 113.1116)" class="st1" width="39.7" height="11"/>
	</g>
</g>
<g>
	<g>
		<rect x="394.7" y="139.4" class="st1" width="38.5" height="11"/>
	</g>
</g>
<g>
	<g>
		
			<rect x="369.3" y="95.3" transform="matrix(0.8321 -0.5547 0.5547 0.8321 9.452 232.7564)" class="st1" width="39.7" height="11"/>
	</g>
</g>
<g>
	<g>
		
			<rect x="383.6" y="169.1" transform="matrix(0.5547 -0.8321 0.8321 0.5547 16.0294 407.9395)" class="st1" width="11" height="39.7"/>
	</g>
</g>
<g>
	<g>
		<path class="st1" d="M423.5,267.7c-7.4-5-17.1-5-24.6,0l-77.6,53.5h-89.2c-4.5,0-8.3-3.7-8.3-8.3c0-4.5,3.7-8.3,8.3-8.3h41.3l0,0
			c18.9,0,34.9-13.6,38.1-32.2l0.9-5.5c0.2-1.6-0.2-3.2-1.3-4.4c-1.1-1.2-2.6-1.9-4.2-1.9h-97.6c-6.1,0-12.1,2-16.9,5.8l-43.7,33.9
			l6.8,8.7l43.6-33.9c2.9-2.3,6.5-3.4,10.1-3.4h91.1c-2.6,12.8-13.8,22.1-27,22.1l0,0H232c-10.7,0-19.3,8.6-19.3,19.3
			c0,10.7,8.6,19.3,19.3,19.3h90.9c1.1,0,2.2-0.3,3.1-1l79-54.3c3.8-2.5,8.5-2.5,12.3,0c3,2,4.8,5.4,4.8,9v4.7
			c0,3.6-1.7,6.9-4.6,8.9l-85.8,60.6l-142.1,27.3l2,10.9l143.2-27.5c0.8-0.1,1.5-0.4,2.2-0.9l86.7-61.2c5.8-4.1,9.3-10.8,9.3-17.9
			v-4.8C433.2,278.5,429.5,271.8,423.5,267.7z"/>
	</g>
</g>
<g>
	<g>
		<path class="st1" d="M201.2,396l-55.1-110.2c-0.8-1.4-1.9-2.5-3.6-2.9c-1.5-0.4-3.1-0.1-4.5,0.8l-33,22.1
			c-1.5,1.1-2.5,2.8-2.5,4.6v99.2c0,3,2.5,5.5,5.5,5.5h66.1c0.9,0,1.7-0.2,2.5-0.5l22.1-11C201.5,402,202.6,398.6,201.2,396z
			 M172.9,403.9h-59.3v-90.7l25.4-16.9l49.8,99.7L172.9,403.9z"/>
	</g>
</g>
<g>
	<g>
		<path class="st1" d="M141.1,359.8c-9.1,0-16.6,7.4-16.6,16.6s7.4,16.6,16.6,16.6s16.6-7.4,16.6-16.6S150.3,359.8,141.1,359.8z
			 M141.1,381.9c-3,0-5.5-2.5-5.5-5.5s2.5-5.5,5.5-5.5s5.5,2.5,5.5,5.5C146.7,379.4,144.3,381.9,141.1,381.9z"/>
	</g>
</g>
</svg>
