	<svg
											width="30px"
											height="30px"
											fill="#4C4D4F"
											class="d-block"
											enable-background="new 0 0 512 512"
											version="1.1"
											viewBox="0 0 512 512"
											xml:space="preserve"
											xmlns="http://www.w3.org/2000/svg"
										>
											<path
												d="m449.39 0h-386.79c-16.713 0-30.309 13.597-30.309 30.309v451.38c0 16.713 13.597 30.309 30.309 30.309h386.79c16.713 0 30.309-13.597 30.309-30.309v-451.38c0-16.712-13.596-30.309-30.309-30.309zm-392.85 30.309c0-3.342 2.719-6.062 6.062-6.062h386.79c3.342 0 6.062 2.719 6.062 6.062v105.1h-398.91v-105.1zm116.8 457.44h-110.74c-3.342 1e-3 -6.062-2.719-6.062-6.061v-145.89h116.8v151.96zm0-176.2h-116.8v-151.89h116.8v151.89zm141.05 176.2h-116.8v-151.96h116.8v151.96zm0-176.2h-116.8v-151.89h116.8v151.89zm141.05 170.14c0 3.342-2.721 6.063-6.062 6.063h-110.74v-328.1h116.81v322.03z"
											/>
											<path
												d="m144.92 223.48h-17.85v-17.85c0-6.696-5.428-12.124-12.124-12.124s-12.124 5.428-12.124 12.124v17.85h-17.85c-6.696 0-12.124 5.429-12.124 12.124s5.428 12.124 12.124 12.124h17.85v17.851c0 6.696 5.428 12.124 12.124 12.124s12.124-5.428 12.124-12.124v-17.851h17.85c6.696 0 12.124-5.429 12.124-12.124s-5.428-12.124-12.124-12.124z"
											/>
											<path
												d="m286.57 223.48h-61.147c-6.696 0-12.124 5.429-12.124 12.124s5.428 12.124 12.124 12.124h61.147c6.695 0 12.124-5.429 12.124-12.124s-5.429-12.124-12.124-12.124z"
											/>
											<path
												d="m132.09 411.81 14.635-14.635c4.734-4.734 4.734-12.411 0-17.147-4.734-4.733-12.411-4.733-17.147 0l-14.635 14.635-14.635-14.635c-4.734-4.733-12.411-4.733-17.147 0-4.734 4.734-4.734 12.411 0 17.147l14.636 14.635-14.635 14.635c-4.734 4.734-4.734 12.411 0 17.145 2.368 2.367 5.47 3.551 8.573 3.551 3.102 0 6.206-1.184 8.573-3.551l14.635-14.635 14.635 14.635c2.368 2.367 5.47 3.551 8.573 3.551s6.206-1.184 8.573-3.551c4.734-4.734 4.734-12.411 0-17.145l-14.634-14.635z"
											/>
											<path
												d="m287.78 380.02c-4.736-4.733-12.41-4.733-17.147 0l-46.416 46.416c-4.733 4.734-4.733 12.411 1e-3 17.147 2.368 2.367 5.47 3.551 8.573 3.551s6.206-1.185 8.573-3.551l46.416-46.416c4.734-4.735 4.734-12.412 0-17.147z"
											/>
											<circle cx="232.79" cy="388.6" r="10.342" />
											<circle cx="279.21" cy="435.01" r="10.34" />
											<path
												d="m427.68 290.42h-61.971c-6.695 0-12.124 5.428-12.124 12.124 0 6.695 5.429 12.124 12.124 12.124h61.971c6.695 0 12.124-5.429 12.124-12.124 0-6.696-5.428-12.124-12.124-12.124z"
											/>
											<path
												d="m427.68 332.74h-61.971c-6.695 0-12.124 5.429-12.124 12.124s5.429 12.124 12.124 12.124h61.971c6.695 0 12.124-5.429 12.124-12.124s-5.428-12.124-12.124-12.124z"
											/>
										</svg>