<svg
     className="d-block"
     width="25"
     height="33"
     viewBox="0 0 25 33"
     fill="none"
     xmlns="http://www.w3.org/2000/svg"
>
    <path
      d="M12.061 2V4.01167"
      stroke="#4C4D4F"
      strokwidth="4"
      strokeLinecap="round"
      strokeLinejoin="round"
    />
    <path
      d="M9.11428 29.1362C9.04118 29.5651 9.06257 30.0048 9.17697 30.4245C9.29136 30.8442 9.496 31.2339 9.7766 31.5664C10.0572 31.8989 10.407 32.1661 10.8015 32.3494C11.1961 32.5327 11.6259 32.6277 12.0609 32.6277C12.496 32.6277 12.9258 32.5327 13.3204 32.3494C13.7149 32.1661 14.0647 31.8989 14.3453 31.5664C14.6259 31.2339 14.8305 30.8442 14.9449 30.4245C15.0593 30.0048 15.0807 29.5651 15.0076 29.1362H9.11428Z"
      fill="#4C4D4F"
    />
    <path
      d="M22.9975 27.9108L20.6104 24.27C20.6104 24.27 20.1854 12.9721 20.1854 12.6533C20.1854 8.48834 16.5446 5.10959 12.0608 5.10959C7.57708 5.10959 3.93625 8.46709 3.93625 12.6321C3.93625 12.9508 3.51125 24.2488 3.51125 24.2488L1.12416 27.9108C1.04616 28.0354 1.00332 28.1788 1.00019 28.3257C0.997048 28.4727 1.03373 28.6177 1.10634 28.7455C1.17895 28.8733 1.28478 28.9791 1.41263 29.0516C1.54047 29.1242 1.68555 29.1607 1.8325 29.1575H22.275C22.4231 29.1634 22.5701 29.1287 22.7 29.0573C22.8299 28.9858 22.9378 28.8803 23.0121 28.752C23.0865 28.6237 23.1244 28.4776 23.1218 28.3294C23.1192 28.1812 23.0763 28.0364 22.9975 27.9108V27.9108Z"
      stroke="#4C4D4F"
      strokwidth="2"
      strokeMiterlimit="10"
    />
    <path
      d="M3.51123 24.0221H20.6104"
      stroke="#4C4D4F"
      strokwidth="2"
      strokeMiterlimit="10"
    />
 </svg>