<svg
                                            width="30"
                                            height="30"
                                            viewBox="0 0 30 30"
                                            fill="none"
                                            xmlns="http://www.w3.org/2000/svg"
                                    >
                                        <path
                                                fill-rule="evenodd"
                                                clip-rule="evenodd"
                                                d="M14.8033 0C14.4798 0 14.2174 0.262324 14.2174 0.585938V3.60428C14.2174 3.92789 14.4798 4.19022 14.8033 4.19022C15.1269 4.19022 15.3893 3.92789 15.3893 3.60428V0.585938C15.3893 0.262324 15.1269 0 14.8033 0ZM29.4596 13.0056L24.3504 7.22437C24.2392 7.09851 24.0793 7.02644 23.9113 7.02644H5.69517C5.52724 7.02644 5.36734 7.09851 5.25613 7.22437L0.146871 13.0056C-0.00570694 13.1783 -0.042914 13.4244 0.0517735 13.6345C0.0874571 13.7137 0.139488 13.7821 0.20277 13.8368L0.204558 13.839L0.206168 13.8411L14.3649 29.8029C14.4761 29.9283 14.6356 30 14.8032 30C14.9708 30 15.1303 29.9282 15.2416 29.8029L29.4003 13.8411L29.4023 13.8386L29.4037 13.8368C29.4669 13.7821 29.5189 13.7136 29.5547 13.6345C29.6494 13.4244 29.6121 13.1783 29.4596 13.0056ZM22.8723 8.19826L20.2684 12.3962L16.0953 8.19826H22.8723ZM19.0251 12.8077H10.5813L14.8032 8.56066L19.0251 12.8077ZM13.5111 8.19832L9.33806 12.3962L6.7341 8.19832H13.5111ZM5.60423 8.60004L8.21429 12.8077H1.8857L5.60423 8.60004ZM1.89554 13.9796H8.82003L13.6034 27.1785L1.89554 13.9796ZM16.0248 27.154L19.3669 18.1087C19.479 17.8052 19.3238 17.4682 19.0203 17.3561C18.7166 17.2438 18.3797 17.399 18.2676 17.7026L14.8086 27.0645L10.0665 13.9796H27.7109L16.0248 27.154ZM21.3921 12.8077L24.0022 8.60004L27.7207 12.8077H21.3921ZM19.3102 2.31586C19.5392 2.08705 19.9101 2.08705 20.1389 2.31586C20.3677 2.54467 20.3677 2.91569 20.1389 3.1445L18.0046 5.27877C17.8901 5.39315 17.7402 5.45039 17.5903 5.45039C17.4403 5.45039 17.2904 5.39321 17.1759 5.27877C16.9471 5.04996 16.9471 4.67895 17.1759 4.45014L19.3102 2.31586ZM12.3162 4.45014L10.1819 2.31586C9.95319 2.08705 9.58229 2.08705 9.35325 2.31586C9.12444 2.54467 9.12444 2.91569 9.35325 3.1445L11.4876 5.27877C11.602 5.39321 11.752 5.45039 11.9019 5.45039C12.0518 5.45039 12.2018 5.39315 12.3162 5.27877C12.545 5.04996 12.545 4.67895 12.3162 4.45014ZM20.1603 15.7242C20.1603 16.0478 19.8979 16.3102 19.5743 16.3102C19.2507 16.3102 18.9884 16.0478 18.9884 15.7242C18.9884 15.4006 19.2507 15.1383 19.5743 15.1383C19.8979 15.1383 20.1603 15.4006 20.1603 15.7242Z"
                                                fill="#283895"
                                        />
                                    </svg>